<mxfile host="app.diagrams.net" agent="Mozilla/5.0 (Windows NT 10.0; Win64; x64) AppleWebKit/537.36 (KHTML, like Gecko) Chrome/130.0.0.0 Safari/537.36" version="24.8.4">
  <diagram name="Página-1" id="qrL0S2haBT-Bs8zU8mPT">
    <mxGraphModel dx="2206" dy="1135" grid="0" gridSize="10" guides="1" tooltips="1" connect="1" arrows="1" fold="1" page="1" pageScale="1" pageWidth="827" pageHeight="1169" math="0" shadow="0">
      <root>
        <mxCell id="0" />
        <mxCell id="1" parent="0" />
        <mxCell id="WZoK5Kah3uG07rNMGVLn-39" value="" style="rounded=0;whiteSpace=wrap;html=1;" vertex="1" parent="1">
          <mxGeometry x="250" y="420" width="580" height="30" as="geometry" />
        </mxCell>
        <mxCell id="WZoK5Kah3uG07rNMGVLn-11" style="edgeStyle=orthogonalEdgeStyle;rounded=0;orthogonalLoop=1;jettySize=auto;html=1;exitX=1.003;exitY=0.03;exitDx=0;exitDy=0;exitPerimeter=0;dashed=1;" edge="1" parent="1" source="WZoK5Kah3uG07rNMGVLn-1" target="WZoK5Kah3uG07rNMGVLn-12">
          <mxGeometry relative="1" as="geometry">
            <mxPoint x="1140" y="134" as="targetPoint" />
            <Array as="points">
              <mxPoint x="1130" y="134" />
            </Array>
          </mxGeometry>
        </mxCell>
        <mxCell id="WZoK5Kah3uG07rNMGVLn-1" value="" style="rounded=0;whiteSpace=wrap;html=1;strokeColor=#0000FF;" vertex="1" parent="1">
          <mxGeometry x="60" y="120" width="970" height="710" as="geometry" />
        </mxCell>
        <mxCell id="WZoK5Kah3uG07rNMGVLn-2" value="CLUSTER KUBERNETES" style="rounded=0;whiteSpace=wrap;html=1;strokeColor=#0000FF;fontStyle=1" vertex="1" parent="1">
          <mxGeometry x="60" y="80" width="970" height="40" as="geometry" />
        </mxCell>
        <mxCell id="WZoK5Kah3uG07rNMGVLn-5" value="" style="rounded=0;whiteSpace=wrap;html=1;strokeColor=#009900;" vertex="1" parent="1">
          <mxGeometry x="150" y="220" width="790" height="590" as="geometry" />
        </mxCell>
        <mxCell id="WZoK5Kah3uG07rNMGVLn-6" value="DEPLOYMENT" style="rounded=0;whiteSpace=wrap;html=1;align=center;strokeColor=#009900;fontStyle=1" vertex="1" parent="1">
          <mxGeometry x="150" y="190" width="790" height="30" as="geometry" />
        </mxCell>
        <mxCell id="WZoK5Kah3uG07rNMGVLn-7" value="" style="rounded=0;whiteSpace=wrap;html=1;strokeColor=#FFB570;" vertex="1" parent="1">
          <mxGeometry x="220" y="340" width="620" height="450" as="geometry" />
        </mxCell>
        <mxCell id="WZoK5Kah3uG07rNMGVLn-8" value="&lt;b&gt;REPLICASET&lt;/b&gt;" style="rounded=0;whiteSpace=wrap;html=1;align=center;strokeColor=#FFB570;" vertex="1" parent="1">
          <mxGeometry x="220" y="310" width="620" height="30" as="geometry" />
        </mxCell>
        <mxCell id="WZoK5Kah3uG07rNMGVLn-12" value="Kubernetes: Orquestrador de containers" style="rounded=1;whiteSpace=wrap;html=1;strokeColor=#0000FF;" vertex="1" parent="1">
          <mxGeometry x="1080" y="104" width="420" height="60" as="geometry" />
        </mxCell>
        <mxCell id="WZoK5Kah3uG07rNMGVLn-13" value="Deployment: Gerencia os replicasets e cria os replicasets automáticamente pelo manifesto deployment.yaml" style="rounded=1;whiteSpace=wrap;html=1;strokeColor=#009900;" vertex="1" parent="1">
          <mxGeometry x="1080" y="266" width="420" height="60" as="geometry" />
        </mxCell>
        <mxCell id="WZoK5Kah3uG07rNMGVLn-14" value="" style="endArrow=classic;html=1;rounded=0;entryX=0;entryY=0.5;entryDx=0;entryDy=0;exitX=0.998;exitY=0.18;exitDx=0;exitDy=0;exitPerimeter=0;dashed=1;" edge="1" parent="1" source="WZoK5Kah3uG07rNMGVLn-5" target="WZoK5Kah3uG07rNMGVLn-13">
          <mxGeometry width="50" height="50" relative="1" as="geometry">
            <mxPoint x="590" y="380" as="sourcePoint" />
            <mxPoint x="640" y="330" as="targetPoint" />
          </mxGeometry>
        </mxCell>
        <mxCell id="WZoK5Kah3uG07rNMGVLn-15" value="Replicaset: Gerencia as réplicadas de PODs&lt;div&gt;Mante a quantidade de PODs ativos, conforme definido no manifesto.&lt;/div&gt;" style="rounded=1;whiteSpace=wrap;html=1;strokeColor=#FFB570;" vertex="1" parent="1">
          <mxGeometry x="1080" y="420" width="420" height="60" as="geometry" />
        </mxCell>
        <mxCell id="WZoK5Kah3uG07rNMGVLn-16" value="" style="endArrow=classic;html=1;rounded=0;entryX=0;entryY=0.5;entryDx=0;entryDy=0;exitX=1;exitY=0.5;exitDx=0;exitDy=0;dashed=1;curved=1;" edge="1" parent="1" source="WZoK5Kah3uG07rNMGVLn-7" target="WZoK5Kah3uG07rNMGVLn-15">
          <mxGeometry width="50" height="50" relative="1" as="geometry">
            <mxPoint x="880" y="374.29" as="sourcePoint" />
            <mxPoint x="1022" y="374.29" as="targetPoint" />
            <Array as="points">
              <mxPoint x="940" y="390" />
            </Array>
          </mxGeometry>
        </mxCell>
        <mxCell id="WZoK5Kah3uG07rNMGVLn-24" value="POD: Unidade de implantação de container" style="rounded=1;whiteSpace=wrap;html=1;strokeColor=#A680B8;" vertex="1" parent="1">
          <mxGeometry x="1070" y="696" width="420" height="60" as="geometry" />
        </mxCell>
        <mxCell id="WZoK5Kah3uG07rNMGVLn-29" value="NAME&amp;nbsp; &amp;nbsp; &amp;nbsp; &amp;nbsp; &amp;nbsp; &amp;nbsp; &amp;nbsp;STATUS&amp;nbsp; &amp;nbsp;ROLES&amp;nbsp; &amp;nbsp; &amp;nbsp; &amp;nbsp; &amp;nbsp; &amp;nbsp;AGE&amp;nbsp; &amp;nbsp; VERSION&#xa;docker-desktop&amp;nbsp; &amp;nbsp;Ready&amp;nbsp; &amp;nbsp; control-plane&amp;nbsp; &amp;nbsp;121m&amp;nbsp; &amp;nbsp;v1.30.2" style="text;html=1;align=left;verticalAlign=middle;whiteSpace=wrap;rounded=0;" vertex="1" parent="1">
          <mxGeometry x="387" y="134" width="420" height="30" as="geometry" />
        </mxCell>
        <mxCell id="WZoK5Kah3uG07rNMGVLn-30" value="&lt;div&gt;NAME&amp;nbsp; &amp;nbsp; &amp;nbsp; &amp;nbsp; &amp;nbsp; &amp;nbsp; &amp;nbsp; &amp;nbsp;READY&amp;nbsp; &amp;nbsp;UP-TO-DATE&amp;nbsp; &amp;nbsp;AVAILABLE&amp;nbsp; &amp;nbsp;AGE&lt;/div&gt;&lt;div&gt;nginx-deployment&amp;nbsp; &amp;nbsp;2/2&amp;nbsp; &amp;nbsp; &amp;nbsp;2&amp;nbsp; &amp;nbsp; &amp;nbsp; &amp;nbsp; &amp;nbsp; &amp;nbsp; 2&amp;nbsp; &amp;nbsp; &amp;nbsp; &amp;nbsp; &amp;nbsp; &amp;nbsp;34m&lt;/div&gt;" style="text;html=1;align=left;verticalAlign=middle;whiteSpace=wrap;rounded=0;" vertex="1" parent="1">
          <mxGeometry x="342" y="236" width="560" height="44" as="geometry" />
        </mxCell>
        <mxCell id="WZoK5Kah3uG07rNMGVLn-31" value="&lt;div&gt;NAME&amp;nbsp; &amp;nbsp; &amp;nbsp; &amp;nbsp; &amp;nbsp; &amp;nbsp; &amp;nbsp; &amp;nbsp; &amp;nbsp; &amp;nbsp; &amp;nbsp; &amp;nbsp; &amp;nbsp; DESIRED&amp;nbsp; &amp;nbsp;CURRENT&amp;nbsp; &amp;nbsp;READY&amp;nbsp; &amp;nbsp;AGE&lt;/div&gt;&lt;div style=&quot;text-align: left;&quot;&gt;nginx-deployment-77d8468669&amp;nbsp; &amp;nbsp;2&amp;nbsp; &amp;nbsp; &amp;nbsp; &amp;nbsp; &amp;nbsp;2&amp;nbsp; &amp;nbsp; &amp;nbsp; &amp;nbsp; &amp;nbsp;2&amp;nbsp; &amp;nbsp; &amp;nbsp; &amp;nbsp;38m&lt;/div&gt;" style="text;html=1;align=center;verticalAlign=middle;whiteSpace=wrap;rounded=0;" vertex="1" parent="1">
          <mxGeometry x="270" y="350" width="520" height="40" as="geometry" />
        </mxCell>
        <mxCell id="WZoK5Kah3uG07rNMGVLn-38" style="edgeStyle=orthogonalEdgeStyle;rounded=0;orthogonalLoop=1;jettySize=auto;html=1;curved=1;" edge="1" parent="1" source="WZoK5Kah3uG07rNMGVLn-35" target="WZoK5Kah3uG07rNMGVLn-37">
          <mxGeometry relative="1" as="geometry" />
        </mxCell>
        <mxCell id="WZoK5Kah3uG07rNMGVLn-35" value="&lt;b&gt;Service Type: NodePort&lt;/b&gt;&lt;div&gt;Veja que os pods são do tipo NodePort, onde faz o redirecionamento da porta externa para a interna, ou seja: 3000 -&amp;gt;80&lt;/div&gt;" style="rounded=1;whiteSpace=wrap;html=1;" vertex="1" parent="1">
          <mxGeometry x="67" y="850" width="407" height="60" as="geometry" />
        </mxCell>
        <mxCell id="WZoK5Kah3uG07rNMGVLn-37" value="&lt;b&gt;Service Types:&amp;nbsp;&lt;/b&gt;&lt;div&gt;NodePort: Faz redirecionamento de porta&lt;/div&gt;&lt;div&gt;ClusterIP: Direciona por meio de IPs virtuais&lt;/div&gt;&lt;div&gt;LoadBalancer: Faz o loadbalancer puxando todos os pods que contem a label/selector&lt;/div&gt;" style="rounded=1;whiteSpace=wrap;html=1;" vertex="1" parent="1">
          <mxGeometry x="50" y="970" width="490" height="70" as="geometry" />
        </mxCell>
        <mxCell id="WZoK5Kah3uG07rNMGVLn-40" value="" style="rounded=0;whiteSpace=wrap;html=1;" vertex="1" parent="1">
          <mxGeometry x="250" y="450" width="560" height="310" as="geometry" />
        </mxCell>
        <mxCell id="WZoK5Kah3uG07rNMGVLn-17" value="&lt;b&gt;POD&lt;/b&gt;" style="rounded=0;whiteSpace=wrap;html=1;strokeColor=#A680B8;" vertex="1" parent="1">
          <mxGeometry x="315" y="540" width="460" height="30" as="geometry" />
        </mxCell>
        <mxCell id="WZoK5Kah3uG07rNMGVLn-18" value="" style="rounded=0;whiteSpace=wrap;html=1;strokeColor=#A680B8;" vertex="1" parent="1">
          <mxGeometry x="315" y="570" width="460" height="160" as="geometry" />
        </mxCell>
        <mxCell id="WZoK5Kah3uG07rNMGVLn-19" value="Nginx01" style="shape=cube;whiteSpace=wrap;html=1;boundedLbl=1;backgroundOutline=1;darkOpacity=0.05;darkOpacity2=0.1;" vertex="1" parent="1">
          <mxGeometry x="369" y="640" width="120" height="80" as="geometry" />
        </mxCell>
        <mxCell id="WZoK5Kah3uG07rNMGVLn-20" value="Nginx02" style="shape=cube;whiteSpace=wrap;html=1;boundedLbl=1;backgroundOutline=1;darkOpacity=0.05;darkOpacity2=0.1;" vertex="1" parent="1">
          <mxGeometry x="575" y="640" width="120" height="80" as="geometry" />
        </mxCell>
        <mxCell id="WZoK5Kah3uG07rNMGVLn-21" value="Container" style="text;html=1;align=center;verticalAlign=middle;whiteSpace=wrap;rounded=0;" vertex="1" parent="1">
          <mxGeometry x="402" y="633" width="60" height="30" as="geometry" />
        </mxCell>
        <mxCell id="WZoK5Kah3uG07rNMGVLn-22" value="Container" style="text;html=1;align=center;verticalAlign=middle;whiteSpace=wrap;rounded=0;" vertex="1" parent="1">
          <mxGeometry x="607" y="633" width="60" height="30" as="geometry" />
        </mxCell>
        <mxCell id="WZoK5Kah3uG07rNMGVLn-32" value="&lt;div&gt;NAME&amp;nbsp; &amp;nbsp; &amp;nbsp; &amp;nbsp; &amp;nbsp; &amp;nbsp; &amp;nbsp; &amp;nbsp; &amp;nbsp; &amp;nbsp; &amp;nbsp; &amp;nbsp; &amp;nbsp; &amp;nbsp; &amp;nbsp; &amp;nbsp; READY&amp;nbsp; &amp;nbsp;STATUS&amp;nbsp; &amp;nbsp; RESTARTS&amp;nbsp; &amp;nbsp;AGE&lt;/div&gt;&lt;div&gt;nginx-deployment-77d8468669-9q9v4&amp;nbsp; &amp;nbsp;1/1&amp;nbsp; &amp;nbsp; &amp;nbsp;Running&amp;nbsp; &amp;nbsp;0&amp;nbsp; &amp;nbsp; &amp;nbsp; &amp;nbsp; &amp;nbsp; 35m&lt;/div&gt;&lt;div&gt;nginx-deployment-77d8468669-q8ls8&amp;nbsp; &amp;nbsp;1/1&amp;nbsp; &amp;nbsp; &amp;nbsp;Running&amp;nbsp; &amp;nbsp;0&amp;nbsp; &amp;nbsp; &amp;nbsp; &amp;nbsp; &amp;nbsp; 35m&lt;/div&gt;" style="text;html=1;align=left;verticalAlign=middle;whiteSpace=wrap;rounded=0;" vertex="1" parent="1">
          <mxGeometry x="335" y="574" width="410" height="40" as="geometry" />
        </mxCell>
        <mxCell id="WZoK5Kah3uG07rNMGVLn-33" value="3000:80" style="text;html=1;align=center;verticalAlign=middle;whiteSpace=wrap;rounded=0;" vertex="1" parent="1">
          <mxGeometry x="408" y="696" width="60" height="30" as="geometry" />
        </mxCell>
        <mxCell id="WZoK5Kah3uG07rNMGVLn-34" value="3001:80" style="text;html=1;align=center;verticalAlign=middle;whiteSpace=wrap;rounded=0;" vertex="1" parent="1">
          <mxGeometry x="616" y="696" width="60" height="30" as="geometry" />
        </mxCell>
        <mxCell id="WZoK5Kah3uG07rNMGVLn-41" value="" style="endArrow=classic;html=1;rounded=0;entryX=0.5;entryY=0;entryDx=0;entryDy=0;curved=1;" edge="1" parent="1" target="WZoK5Kah3uG07rNMGVLn-35">
          <mxGeometry width="50" height="50" relative="1" as="geometry">
            <mxPoint x="438" y="720" as="sourcePoint" />
            <mxPoint x="540" y="860" as="targetPoint" />
          </mxGeometry>
        </mxCell>
        <mxCell id="WZoK5Kah3uG07rNMGVLn-42" value="&lt;b&gt;SERVICE&lt;/b&gt;" style="rounded=0;whiteSpace=wrap;html=1;" vertex="1" parent="1">
          <mxGeometry x="249" y="420" width="561" height="30" as="geometry" />
        </mxCell>
        <mxCell id="WZoK5Kah3uG07rNMGVLn-43" value="NAME&amp;nbsp; &amp;nbsp; &amp;nbsp; &amp;nbsp; &amp;nbsp; &amp;nbsp; TYPE&amp;nbsp; &amp;nbsp; &amp;nbsp; &amp;nbsp; CLUSTER-IP&amp;nbsp; &amp;nbsp; &amp;nbsp; EXTERNAL-IP&amp;nbsp; &amp;nbsp;PORT(S)&amp;nbsp; &amp;nbsp; &amp;nbsp; &amp;nbsp; AGE&#xa;kubernetes&amp;nbsp; &amp;nbsp; &amp;nbsp; ClusterIP&amp;nbsp; &amp;nbsp;10.96.0.1&amp;nbsp; &amp;nbsp; &amp;nbsp; &amp;nbsp;&amp;nbsp; &amp;nbsp; &amp;nbsp; &amp;nbsp; 443/TCP&amp;nbsp; &amp;nbsp; &amp;nbsp; &amp;nbsp; 134m&#xa;nginx-service&amp;nbsp; &amp;nbsp;NodePort&amp;nbsp; &amp;nbsp; 10.101.54.135&amp;nbsp; &amp;nbsp;&amp;nbsp; &amp;nbsp; &amp;nbsp; &amp;nbsp; 80:30808/TCP&amp;nbsp; &amp;nbsp;45m" style="text;html=1;align=left;verticalAlign=middle;whiteSpace=wrap;rounded=0;" vertex="1" parent="1">
          <mxGeometry x="330" y="464" width="470" height="60" as="geometry" />
        </mxCell>
        <mxCell id="WZoK5Kah3uG07rNMGVLn-44" value="" style="endArrow=classic;html=1;rounded=0;entryX=0;entryY=0.5;entryDx=0;entryDy=0;exitX=1;exitY=0.75;exitDx=0;exitDy=0;dashed=1;curved=1;" edge="1" parent="1" source="WZoK5Kah3uG07rNMGVLn-18" target="WZoK5Kah3uG07rNMGVLn-24">
          <mxGeometry width="50" height="50" relative="1" as="geometry">
            <mxPoint x="700" y="710" as="sourcePoint" />
            <mxPoint x="750" y="660" as="targetPoint" />
          </mxGeometry>
        </mxCell>
        <mxCell id="WZoK5Kah3uG07rNMGVLn-46" style="edgeStyle=orthogonalEdgeStyle;rounded=0;orthogonalLoop=1;jettySize=auto;html=1;curved=1;dashed=1;startArrow=classic;startFill=1;endArrow=none;endFill=0;" edge="1" parent="1" source="WZoK5Kah3uG07rNMGVLn-45" target="WZoK5Kah3uG07rNMGVLn-40">
          <mxGeometry relative="1" as="geometry" />
        </mxCell>
        <mxCell id="WZoK5Kah3uG07rNMGVLn-45" value="Service: Gerencia e destribui os acessos ou sua forma como NodePort, ClusterIP e LoadBalancer" style="rounded=1;whiteSpace=wrap;html=1;" vertex="1" parent="1">
          <mxGeometry x="1080" y="574" width="420" height="60" as="geometry" />
        </mxCell>
      </root>
    </mxGraphModel>
  </diagram>
</mxfile>
